<?xml version="1.0" encoding="UTF-8"?>
<svg width="80px" height="80px" viewBox="0 0 80 80" version="1.1" xmlns="http://www.w3.org/2000/svg" xmlns:xlink="http://www.w3.org/1999/xlink">
    <g id="Page-1" stroke="none" stroke-width="1" fill="none" fill-rule="evenodd">
        <g id="video_icon_2" transform="translate(-60.000000, -60.000000)" fill="#FFFFFF" fill-rule="nonzero">
            <path d="M100,138 C120.98682,138 138,120.98682 138,100 C138,79.0131795 120.98682,62 100,62 C79.0131795,62 62,79.0131795 62,100 C62,120.98682 79.0131795,138 100,138 Z M100,140 C77.90861,140 60,122.09139 60,100 C60,77.90861 77.90861,60 100,60 C122.09139,60 140,77.90861 140,100 C140,122.09139 122.09139,140 100,140 Z M102,106.666667 C102,107.396498 101.388954,108 100.625,108 L87.375,108 C86.6110463,108 86,107.396498 86,106.666667 L86,93.3333333 C86,92.6035025 86.6110463,92 87.375,92 L100.625,92 C101.388954,92 102,92.6035025 102,93.3333333 L102,106.666667 Z M104,106.666667 L104,93.3333333 C104,91.4933333 102.488,90 100.625,90 L87.375,90 C85.512,90 84,91.4933333 84,93.3333333 L84,106.666667 C84,108.506667 85.512,110 87.375,110 L100.625,110 C102.488,110 104,108.506667 104,106.666667 Z M109,98.0763824 L115,93.8533824 L115,106.146618 L109,101.923618 L109,98.0763824 Z M117,90 L107,97.0383333 L107,102.961667 L117,110 L117,90 Z" id="video_icon_cms"></path>
        </g>
    </g>
</svg>
