<svg width="80px" height="80px" viewBox="0 0 80 80" version="1.1" xmlns="http://www.w3.org/2000/svg" xmlns:xlink="http://www.w3.org/1999/xlink">
    <!-- Generator: Sketch 48.2 (47327) - http://www.bohemiancoding.com/sketch -->
    <desc>Created with Sketch.</desc>
    <defs></defs>
    <g id="Music" stroke="none" stroke-width="1" fill="none" fill-rule="evenodd">
        <g id="general_landscape_1_2" transform="translate(-680.000000, -390.000000)">
            <g id="music_icon" transform="translate(680.000000, 390.000000)">
                <circle id="Oval" stroke="#FFFFFF" stroke-width="2" cx="40" cy="40" r="39"></circle>
                <path d="M48,52.3333333 C50.209139,52.3333333 52,50.8409492 52,49 C52,47.1590508 50.209139,45.6666667 48,45.6666667 C45.790861,45.6666667 44,47.1590508 44,49 C44,50.8409492 45.790861,52.3333333 48,52.3333333 Z M51.9975586,45.2713359 L51.9975586,25.311114 L33.9907227,30.4701742 L33.9907227,52.1313477 L33.9097743,52.1313477 C33.9690772,52.4134671 34,52.7037242 34,53 C34,55.7614237 31.3137085,58 28,58 C24.6862915,58 22,55.7614237 22,53 C22,50.2385763 24.6862915,48 28,48 C29.5322362,48 30.930326,48.4786243 31.9907227,49.2662506 L31.9907227,28.9627187 L53.9975586,22.657636 L53.9975586,47.9393311 L53.864727,47.9393311 C53.9533378,48.2811866 54,48.6360523 54,49 C54,51.7614237 51.3137085,54 48,54 C44.6862915,54 42,51.7614237 42,49 C42,46.2385763 44.6862915,44 48,44 C49.5355311,44 50.9363381,44.4806849 51.9975586,45.2713359 Z M28,56.3333333 C30.209139,56.3333333 32,54.8409492 32,53 C32,51.1590508 30.209139,49.6666667 28,49.6666667 C25.790861,49.6666667 24,51.1590508 24,53 C24,54.8409492 25.790861,56.3333333 28,56.3333333 Z" id="Combined-Shape" fill="#FFFFFF" fill-rule="nonzero"></path>
            </g>
        </g>
    </g>
</svg>