<?xml version="1.0" encoding="UTF-8"?>
<svg width="43px" height="24px" viewBox="0 0 43 24" version="1.1" xmlns="http://www.w3.org/2000/svg" xmlns:xlink="http://www.w3.org/1999/xlink">
    <!-- Generator: Sketch 48.2 (47327) - http://www.bohemiancoding.com/sketch -->
    <title>Soundcloud</title>
    <desc>Created with Sketch.</desc>
    <defs></defs>
    <g id="Page-1" stroke="none" stroke-width="1" fill="none" fill-rule="evenodd">
        <path d="M2.05364069,9.57610101 C1.96275411,9.57610101 1.88815228,9.64916238 1.87670894,9.74995186 L1.45792644,13.5663081 L1.87670894,17.2983798 C1.88815228,17.3974087 1.96275411,17.4704701 2.05364069,17.4704701 C2.14298682,17.4704701 2.21604819,17.3991693 2.23057244,17.2983798 L2.70459109,13.5663081 L2.23057244,9.74819135 C2.21582813,9.64762193 2.14276676,9.57610101 2.05364069,9.57610101 Z M0.482161032,11.0388689 C0.392814898,11.0388689 0.323054493,11.1070888 0.311611146,11.2043573 L0,13.5663081 L0.311611146,15.8862267 C0.323054493,15.9832751 0.392814898,16.0517151 0.482161032,16.0517151 C0.5682062,16.0517151 0.637966605,15.9832751 0.652490854,15.8862267 L1.01933816,13.5663081 L0.652490854,11.2043573 C0.637966605,11.1068688 0.5682062,11.0388689 0.482161032,11.0388689 Z M3.7223888,8.82788216 C3.61037603,8.82788216 3.5210299,8.91546777 3.50958655,9.03716337 L3.11347069,13.5663081 L3.50958655,17.928204 C3.5210299,18.0501197 3.61037603,18.1374852 3.7223888,18.1374852 C3.83264105,18.1374852 3.92198718,18.0501197 3.93673149,17.9299645 L4.386323,13.5663081 L3.93673149,9.03716337 C3.92198718,8.91546777 3.83264105,8.82788216 3.7223888,8.82788216 Z M5.40566116,8.66877562 C5.27406266,8.66877562 5.16711138,8.77418645 5.15720848,8.91392732 L4.7822188,13.5665282 L5.15720848,18.0681649 C5.16689132,18.2076857 5.27406266,18.3128765 5.40566116,18.3128765 C5.53725965,18.3128765 5.64421093,18.2074657 5.65565428,18.0681649 L6.08125877,13.5665282 L5.65565428,8.91238687 C5.644431,8.77418645 5.53725965,8.66877562 5.40566116,8.66877562 Z M7.38778093,9.2482051 C7.37809809,9.08909856 7.25486205,8.96894342 7.10367783,8.96894342 C6.9494127,8.96894342 6.82771711,9.08909856 6.81803428,9.25150607 L6.46417077,13.5663081 L6.81803428,18.1051358 C6.82771711,18.2655627 6.94963277,18.3876984 7.10367783,18.3876984 C7.25486205,18.3876984 7.37809809,18.2655627 7.38778093,18.1051358 L7.79049872,13.5663081 L7.38778093,9.2482051 Z M8.81489836,6.22716144 C8.64280802,6.22716144 8.5015267,6.36668225 8.49338431,6.54691497 L8.16064699,13.5696091 L8.49338431,18.1066762 C8.5015267,18.283828 8.64280802,18.4248893 8.81489836,18.4248893 C8.98368773,18.4248893 9.12496905,18.2831678 9.13619234,18.1049157 L9.13619234,18.1066762 L9.51118202,13.5696091 L9.13619234,6.54537452 C9.12474899,6.36690232 8.98368773,6.22716144 8.81489836,6.22716144 Z M10.512695,4.60858801 C10.3194784,4.60858801 10.1621324,4.7661541 10.15399,4.96421203 L9.84391935,13.5940363 L10.15399,18.1035953 C10.1621324,18.3001128 10.3194784,18.4572387 10.512695,18.4572387 C10.7026105,18.4572387 10.8617171,18.2998927 10.8698594,18.1018348 L10.8698594,18.1035953 L11.2221825,13.5940363 L10.8698594,4.96421203 C10.8617171,4.7661541 10.7028306,4.60858801 10.512695,4.60858801 Z M12.2773911,3.82956015 C12.0630484,3.82956015 11.8894177,4.00165048 11.8830358,4.22237504 L11.5923308,13.5711496 L11.8830358,18.0333948 C11.8894177,18.2508184 12.0632685,18.4231288 12.2773911,18.4231288 C12.4884329,18.4231288 12.6620637,18.2510384 12.670206,18.0320744 L12.670206,18.0355954 L12.9963414,13.5711496 L12.670206,4.22237504 C12.6620637,4.00165048 12.4884329,3.82956015 12.2773911,3.82956015 Z M14.4591093,3.90746293 C14.4509669,3.66715264 14.2625918,3.47877754 14.0288834,3.47877754 C13.7934146,3.47877754 13.603499,3.66715264 13.5986576,3.90746293 L13.3292988,13.5713696 L13.5986576,18.0078673 C13.601664,18.2434669 13.7932651,18.4330099 14.0288834,18.4334718 C14.2625918,18.4334718 14.4509669,18.2453168 14.4591093,18.0050065 L14.7610376,13.5715897 L14.4591093,3.90746293 Z M14.4591093,18.0045663 L14.4591093,18.0078673 L14.4591093,18.0045663 Z M15.7935796,3.68981927 C15.5387451,3.68981927 15.3325448,3.89447914 15.3277034,4.15415509 L15.0807911,13.5711496 L15.3277034,17.9656149 C15.3325448,18.2237504 15.5387451,18.4286304 15.7935796,18.4286304 C16.0484142,18.4286304 16.253074,18.2237504 16.2612164,17.9627541 L16.2612164,17.9673755 L16.5371771,13.5713696 L16.2612164,4.15437515 C16.252854,3.89447914 16.0484142,3.68981927 15.7935796,3.68981927 Z M17.5728,3.99834952 C17.2968393,3.99834952 17.0761148,4.21907408 17.0695128,4.49987621 L16.8454873,13.5724699 L17.0708332,17.9378868 C17.0756746,18.2156081 17.2963992,18.4363326 17.5723599,18.4363326 C17.8483206,18.4363326 18.0708057,18.2156081 18.0756471,17.9348059 L18.0756471,17.938327 L18.3287212,13.5731301 L18.0756471,4.49877589 C18.0739547,4.22215771 17.8494232,3.99870705 17.5728,3.99834952 Z M19.6636316,2.32938134 C19.5756598,2.2706042 19.4723443,2.23899731 19.3665447,2.23849476 C19.2593734,2.23849476 19.158804,2.27084422 19.0742992,2.32608038 C18.9222221,2.42543942 18.8296347,2.59402764 18.827387,2.77567188 L18.824086,2.87800182 L18.6227271,13.5707094 C18.6227271,13.5770913 18.8271669,17.9101587 18.8271669,17.9101587 L18.8271669,17.9277639 C18.8337689,18.0498996 18.8791021,18.1614722 18.953924,18.2492779 C19.0550594,18.373249 19.2063352,18.4454965 19.3663246,18.4462355 C19.5124474,18.4462355 19.6455863,18.3843974 19.7428548,18.2869089 C19.8401232,18.1894204 19.9019613,18.0562815 19.9052623,17.9083982 L19.9279289,17.4781724 L20.1325888,13.5724699 L19.9052623,2.77567188 C19.9017993,2.59654182 19.8117378,2.43019869 19.6636316,2.32938134 Z M19.9054824,17.9103788 L19.9054824,17.9083982 L19.9054824,17.9103788 L19.9054824,17.9072979 L19.9054824,17.9083982 L19.9054824,17.9103788 Z M21.4441724,1.30674222 C21.2378652,1.18041638 20.9739051,1.20008712 20.7886007,1.35559651 C20.6558031,1.46395733 20.5779351,1.62565839 20.5760185,1.79704564 L20.574478,1.85712321 L20.3394493,13.5744505 L20.4596044,15.740104 L20.5764586,17.8487608 C20.5797596,18.1603719 20.8378951,18.4187275 21.1508266,18.4187275 C21.4644183,18.4187275 21.7225538,18.1603719 21.7271752,17.8441394 L21.7271752,17.8487608 L21.9820097,13.5744505 L21.7271752,1.79704564 C21.7233968,1.59582899 21.6165184,1.41066179 21.4441724,1.30674222 Z M37.2756031,8 C36.5595137,8 35.8762138,8.14436223 35.2529915,8.4057987 C34.8372899,3.69488075 30.8860342,0 26.0681649,0 C24.9241946,0.00129914229 23.7901835,0.212616217 22.7225263,0.623442357 C22.3279509,0.775946964 22.2240805,0.933513053 22.2194592,1.23874233 L22.2194592,17.8309355 C22.2240805,18.1506891 22.4720931,18.3991417 22.7841444,18.4299508 C22.7971282,18.4317113 37.2758232,18.4299508 37.2758232,18.4299508 C40.1637279,18.4299508 42.5032322,16.1166341 42.5032322,13.2287294 C42.5030121,10.3408247 40.1635078,8 37.2756031,8 Z M4.17352075,21.5755508 C3.56152175,21.4314087 3.39603334,21.3532858 3.39603334,21.1116552 C3.39603334,20.9413253 3.5340137,20.7641735 3.94795478,20.7641735 C4.30181828,20.7641735 4.577779,20.9067752 4.82623167,21.16227 L5.38475504,20.6215718 C5.01944819,20.2404203 4.577779,20.0126537 3.97568289,20.0126537 C3.21448024,20.0126537 2.59587929,20.44442 2.59587929,21.1457651 C2.59587929,21.9069678 3.09256458,22.1342943 3.80535307,22.2980222 C4.53420626,22.4635106 4.66580475,22.5757434 4.66580475,22.8241961 C4.66580475,23.1164416 4.4499216,23.244519 3.99196765,23.244519 C3.62181938,23.244519 3.27455781,23.1164416 3.00343851,22.8013094 L2.44667565,23.2982147 C2.73892113,23.7284406 3.30228592,23.9995599 3.94817484,23.9995599 C5.00184304,23.9995599 5.46771931,23.504415 5.46771931,22.7687399 C5.46749924,21.928094 4.78728028,21.7205733 4.17352075,21.5755508 Z M7.73042115,20.0126537 C6.67675295,20.0126537 6.05353066,20.830853 6.05353066,22.0064369 C6.05353066,23.1835612 6.67697301,24 7.73042115,24 C8.7856298,24 9.40885209,23.1835612 9.40885209,22.0064369 C9.40885209,20.830853 8.7856298,20.0126537 7.73042115,20.0126537 Z M7.73042115,23.2335158 C7.10697879,23.2335158 6.84730284,22.6963387 6.84730284,22.0064369 C6.84730284,21.3165351 7.10697879,20.7808984 7.73042115,20.7808984 C8.35540396,20.7808984 8.61507991,21.3167552 8.61507991,22.0064369 C8.61507991,22.6956785 8.35540396,23.2335158 7.73042115,23.2335158 Z M12.5291448,22.2447666 C12.5291448,22.861607 12.2254559,23.244519 11.7353726,23.244519 C11.2435287,23.244519 10.9446813,22.8517041 10.9446813,22.2331032 L10.9446813,20.0738316 L10.1720353,20.0738316 L10.1720353,22.2443265 C10.1720353,23.370836 10.8018595,23.9993398 11.7353726,23.9993398 C12.7175199,23.9993398 13.3020108,23.3532308 13.3020108,22.2333232 L13.3020108,20.0740517 L12.5293648,20.0740517 L12.5291448,22.2447666 Z M16.6375265,21.7091299 C16.6375265,21.9234726 16.6472093,22.4104751 16.6472093,22.5532968 C16.5985751,22.4542679 16.4720381,22.2612714 16.3776305,22.1169092 L15.0072896,20.0747119 L14.2672132,20.0747119 L14.2672132,23.9397024 L15.0301763,23.9397024 L15.0301763,22.2386048 C15.0301763,22.0229417 15.018733,21.5370396 15.018733,21.3944379 C15.0691277,21.4932468 15.1956647,21.6866834 15.2883118,21.8310456 L16.7088273,23.9397024 L17.3987291,23.9397024 L17.3987291,20.0747119 L16.6373064,20.0747119 L16.6373064,21.7091299 L16.6375265,21.7091299 Z M19.6020136,20.0742717 L18.3943003,20.0742717 L18.3943003,23.9394823 L19.5467774,23.9394823 C20.5405881,23.9394823 21.5242759,23.3648942 21.5242759,22.0057767 C21.5242759,20.5923032 20.7058565,20.0742717 19.6020136,20.0742717 Z M19.5467774,23.1879625 L19.1656259,23.1879625 L19.1656259,20.8262317 L19.5762661,20.8262317 C20.3927049,20.8262317 20.7305037,21.217066 20.7305037,22.0062168 C20.7300635,22.7137238 20.3583748,23.1879625 19.5467774,23.1879625 Z M23.9152752,20.7804583 C24.2625368,20.7804583 24.4834814,20.9362639 24.6232223,21.1990207 L25.3388716,20.8698044 C25.0957005,20.3665172 24.6557918,20.0124336 23.9264985,20.0124336 C22.9155228,20.0124336 22.2093362,20.830853 22.2093362,22.0059968 C22.2093362,23.2271339 22.8875746,23.9997799 23.8989905,23.9997799 C24.6005557,23.9997799 25.0629109,23.6749649 25.3294089,23.1261244 L24.6764779,22.7396914 C24.4720381,23.0825516 24.2689187,23.2335158 23.9198966,23.2335158 C23.3404671,23.2335158 23.0026683,22.70096 23.0026683,22.0059968 C23.0026683,21.2885869 23.3356257,20.7804583 23.9152752,20.7804583 Z M26.7820538,20.0742717 L26.0091877,20.0742717 L26.0091877,23.9394823 L28.3335076,23.9394823 L28.3335076,23.1778395 L26.7813936,23.1778395 L26.7813936,20.0740517 L26.7820538,20.0740517 L26.7820538,20.0742717 Z M30.3680026,20.0126537 C29.3143344,20.0126537 28.6891316,20.830853 28.6891316,22.0064369 C28.6891316,23.1835612 29.3143344,24 30.3680026,24 C31.4232113,24 32.0481941,23.1835612 32.0481941,22.0064369 C32.0481941,20.830853 31.4232113,20.0126537 30.3680026,20.0126537 Z M30.3680026,23.2335158 C29.7445603,23.2335158 29.4846643,22.6963387 29.4846643,22.0064369 C29.4846643,21.3165351 29.7445603,20.7808984 30.3680026,20.7808984 C30.9929854,20.7808984 31.251341,21.3167552 31.251341,22.0064369 C31.251341,22.6956785 30.9929854,23.2335158 30.3680026,23.2335158 Z M35.1669463,22.2447666 C35.1669463,22.861607 34.864798,23.244519 34.3731742,23.244519 C33.8813303,23.244519 33.5822628,22.8517041 33.5822628,22.2331032 L33.5822628,20.0738316 L32.8098369,20.0738316 L32.8098369,22.2443265 C32.8098369,23.370836 33.439441,23.9993398 34.3731742,23.9993398 C35.3553214,23.9993398 35.9411328,23.3532308 35.9411328,22.2333232 L35.9411328,20.0740517 L35.1669463,20.0740517 L35.1669463,22.2447666 Z M38.116249,20.0742717 L36.9067752,20.0742717 L36.9067752,23.9394823 L38.0590323,23.9394823 C39.0557038,23.9394823 40.0365307,23.3648942 40.0365307,22.0057767 C40.0367507,20.5923032 39.2216323,20.0742717 38.116249,20.0742717 Z M38.0590323,23.1879625 L37.6794212,23.1879625 L37.6794212,20.8262317 L38.0880808,20.8262317 C38.9047396,20.8262317 39.2403378,21.217066 39.2403378,22.0062168 C39.240998,22.7137238 38.8728303,23.1879625 38.0590323,23.1879625 Z" id="Soundcloud" fill="#FFFFFF" fill-rule="nonzero"></path>
    </g>
</svg>