<?xml version="1.0" encoding="UTF-8"?>
<svg width="60px" height="18px" viewBox="0 0 60 18" version="1.1" xmlns="http://www.w3.org/2000/svg" xmlns:xlink="http://www.w3.org/1999/xlink">
    <!-- Generator: Sketch 48.2 (47327) - http://www.bohemiancoding.com/sketch -->
    <title>Spotify</title>
    <desc>Created with Sketch.</desc>
    <defs></defs>
    <g id="Page-1" stroke="none" stroke-width="1" fill="none" fill-rule="evenodd">
        <path d="M8.99775286,0 C4.0285374,0 0,4.02842688 0,8.99764235 C0,13.967392 4.0285374,17.9956101 8.99775286,17.9956101 C13.9671894,17.9956101 17.9955057,13.9673981 17.9955057,8.99764235 C17.9955057,4.02874615 13.9673981,0.000429780075 8.99764235,0.000429780075 L8.99775286,0 Z M13.1240652,12.9771848 C12.9624679,13.2422547 12.6171396,13.3253067 12.3529293,13.1638137 C10.240026,11.8724351 7.58054693,11.5807188 4.44853077,12.2961983 C4.14672078,12.365399 3.84587473,12.1761853 3.77711605,11.8744735 C3.70802584,11.5726635 3.89637388,11.2718175 4.19893906,11.2030588 C7.62642902,10.4194592 10.566444,10.7567322 12.9380748,12.2059445 C13.2023896,12.3681926 13.2861906,12.7130911 13.1239547,12.9773997 L13.1240652,12.9771848 Z M14.2253705,10.527555 C14.0218697,10.8577305 13.5901556,10.9613075 13.2604099,10.7585557 C10.8423628,9.27216744 7.15517517,8.84163218 4.29446075,9.71000896 C3.92345003,9.82207105 3.53160111,9.61298304 3.41899874,9.24262313 C3.30725592,8.87161241 3.51645444,8.48051254 3.88681435,8.36769527 C7.15453664,7.37619878 11.2168056,7.85647187 13.9942532,9.56323907 C14.3241156,9.76631015 14.4283311,10.1982391 14.22526,10.5276594 L14.2253705,10.527555 Z M14.3199221,7.97638051 C11.4195513,6.25393249 6.63546054,6.09555853 3.86671292,6.93588295 C3.42211157,7.07072338 2.95193217,6.81973182 2.81719611,6.37512433 C2.68246006,5.93030809 2.93323674,5.46044795 3.37816349,5.32528212 C6.55649152,4.36043199 11.8400973,4.54684603 15.1788315,6.52888122 C15.5787418,6.7662242 15.7099353,7.28270933 15.4729054,7.68208554 C15.2365264,8.0819959 14.7186414,8.21382787 14.3200265,7.97638051 L14.3199221,7.97638051 Z M24.4799109,8.30645161 C22.9263603,7.93598119 22.6497968,7.67597038 22.6497968,7.12960325 C22.6497968,6.61344352 23.1357675,6.26607684 23.8584427,6.26607684 C24.5589842,6.26607684 25.2536132,6.5298513 25.9818756,7.07287842 C26.0039049,7.08932058 26.0315213,7.09586552 26.0587018,7.09157385 C26.0858885,7.08749094 26.1099562,7.07255302 26.125858,7.05010008 L26.8844199,5.98080725 C26.9155789,5.93675479 26.9070877,5.87605143 26.8650798,5.84241807 C25.9983239,5.14692953 25.0222933,4.80879698 23.8814482,4.80879698 C22.2040166,4.80879698 21.0323317,5.8154463 21.0323317,7.25574984 C21.0323317,8.80026892 22.043064,9.34716407 23.7896902,9.76931247 C25.2762995,10.1117367 25.5271867,10.398621 25.5271867,10.911453 C25.5271867,11.4797267 25.0198251,11.8330059 24.2033535,11.8330059 C23.2965237,11.8330059 22.5568722,11.5275428 21.729435,10.8109889 C21.7089161,10.7932574 21.6807594,10.7852082 21.6547638,10.7867124 C21.6273623,10.7889657 21.6023245,10.8016442 21.5849245,10.8225991 L20.7343898,11.8348355 C20.698718,11.8768434 20.7032307,11.9395913 20.7444957,11.9759139 C21.707197,12.8353635 22.8912349,13.2893218 24.1689772,13.2893218 C25.9765156,13.2893218 27.1445535,12.3016872 27.1445535,10.77307 C27.1477768,9.4826553 26.3752533,8.76814593 24.4831465,8.30785147 L24.4799109,8.30645161 Z M31.2338925,6.77428564 C30.4504095,6.77428564 29.8077778,7.08286774 29.277859,7.7151786 L29.277859,7.0034628 C29.277859,6.94727212 29.2323023,6.90150055 29.176216,6.90150055 L27.7851284,6.90150055 C27.7289377,6.90150055 27.6834854,6.94727212 27.6834854,7.0034628 L27.6834854,14.9116188 C27.6834854,14.9678095 27.7289316,15.0135811 27.7851284,15.0135811 L29.176216,15.0135811 C29.2323023,15.0135811 29.277859,14.9678156 29.277859,14.9116188 L29.277859,12.4153517 C29.8078883,13.0101674 30.4506244,13.3008092 31.2338925,13.3008092 C32.6896619,13.3008092 34.163384,12.1801638 34.163384,10.037925 C34.1655329,7.89515208 32.6913872,6.77418127 31.2355072,6.77418127 L31.2338925,6.77428564 Z M32.5457961,10.037925 C32.5457961,11.1288174 31.873835,11.8900623 30.9116618,11.8900623 C29.9604602,11.8900623 29.2429424,11.0942139 29.2429424,10.037925 C29.2429424,8.98174663 29.9604602,8.18579393 30.9116618,8.18579393 C31.8582585,8.18568341 32.5459067,8.96444491 32.5459067,10.0378145 L32.5457961,10.037925 Z M37.9406044,6.77428564 C36.0657993,6.77428564 34.5970259,8.21791692 34.5970259,10.0612375 C34.5970259,11.884469 36.0556995,13.3129474 37.9176112,13.3129474 C39.7990778,13.3129474 41.2723578,11.8741543 41.2723578,10.0379189 C41.2723578,8.20802584 39.8089566,6.77450053 37.9404939,6.77450053 L37.9406044,6.77428564 Z M37.9406044,11.9009111 C36.9434041,11.9009111 36.1916144,11.0996906 36.1916144,10.0373847 C36.1916144,8.97056006 36.9174085,8.19642177 37.917605,8.19642177 C38.921252,8.19642177 39.6780886,8.99763621 39.6780886,10.0606972 C39.6780886,11.127307 38.9474686,11.9009111 37.9407026,11.9009111 L37.9406044,11.9009111 Z M45.2758574,6.90150669 L43.7450913,6.90150669 L43.7450913,5.33646254 C43.7450913,5.28037624 43.6997495,5.23460466 43.6435588,5.23460466 L42.2526861,5.23460466 C42.1963849,5.23460466 42.1507239,5.28037624 42.1507239,5.33646254 L42.1507239,6.90150669 L41.4818756,6.90150669 C41.4258998,6.90150669 41.3805518,6.94727212 41.3805518,7.00346894 L41.3805518,8.19900659 C41.3805518,8.25509289 41.4258998,8.30096885 41.4818756,8.30096885 L42.1507239,8.30096885 L42.1507239,11.3944153 C42.1507239,12.644535 42.7729349,13.2783563 44.0000614,13.2783563 C44.4990422,13.2783563 44.9130187,13.1753134 45.3031546,12.9540872 C45.3348478,12.9363557 45.3545072,12.9021943 45.3545072,12.8658779 L45.3545072,11.7273905 C45.3545072,11.6922529 45.3362354,11.6590555 45.3061569,11.6406854 C45.2758574,11.6216646 45.2381473,11.6207007 45.2070926,11.6360622 C44.9391186,11.7709088 44.6800779,11.8331164 44.3905105,11.8331164 C43.94419,11.8331164 43.7450913,11.6304751 43.7450913,11.1763081 L43.7450913,8.30151528 L45.2758574,8.30151528 C45.3320481,8.30151528 45.3772855,8.2557437 45.3772855,8.19955303 L45.3772855,7.00411975 C45.3794344,6.94792907 45.3343075,6.9021575 45.2773678,6.9021575 L45.2758574,6.90150669 Z M50.6094281,6.90762798 L50.6094281,6.71540577 C50.6094281,6.14991957 50.8262461,5.89774918 51.3125484,5.89774918 C51.6025394,5.89774918 51.8354863,5.95533971 52.0963567,6.04237018 C52.1284858,6.05247615 52.1620025,6.04742316 52.1881147,6.02818743 C52.214976,6.0089517 52.2301288,5.97811805 52.2301288,5.94545477 L52.2301288,4.77322961 C52.2301288,4.72842197 52.2013335,4.68877783 52.1581345,4.67555902 C51.882535,4.5935754 51.5299066,4.50944902 51.0019279,4.50944902 C49.7170942,4.50944902 49.0379373,5.23298378 49.0379373,6.60107813 L49.0379373,6.89547749 L48.3696293,6.89547749 C48.313543,6.89547749 48.2675565,6.94124906 48.2675565,6.99733536 L48.2675565,8.19900045 C48.2675565,8.25508675 48.313543,8.30096271 48.3696293,8.30096271 L49.0379373,8.30096271 L49.0379373,13.0724793 C49.0379373,13.12867 49.0832791,13.1744416 49.1393715,13.1744416 L50.5304591,13.1744416 C50.5866498,13.1744416 50.6324214,13.12867 50.6324214,13.0724793 L50.6324214,8.30129425 L51.9312168,8.30129425 L53.9207731,13.0716321 C53.6949237,13.57286 53.4728256,13.672569 53.1696281,13.672569 C52.9245429,13.672569 52.66646,13.5993959 52.4025689,13.4549897 C52.3777521,13.4413412 52.3483122,13.4390879 52.3215615,13.4473642 C52.2950195,13.4567089 52.272677,13.4764788 52.2613922,13.5022656 L51.7899235,14.5366357 C51.7674644,14.5855262 51.7867001,14.642908 51.8337611,14.6682589 C52.3259636,14.9348269 52.770258,15.0486081 53.3194064,15.0486081 C54.3465747,15.0486081 54.9143203,14.5701585 55.4147992,13.2829672 L57.8281125,7.04687059 C57.8402507,7.01549664 57.8366038,6.98003979 57.817368,6.9522146 C57.7982551,6.92459816 57.7674092,6.90794725 57.7336653,6.90794725 L56.2855213,6.90794725 C56.2421258,6.90794725 56.2033167,6.93555755 56.1891462,6.97628228 L54.705662,11.2136928 L53.0807741,6.97348871 C53.0659528,6.93405332 53.0279173,6.90794111 52.9857988,6.90794111 L50.6091089,6.90794111 L50.6094281,6.90762798 Z M47.5171605,6.90150669 L46.1260729,6.90150669 C46.0698761,6.90150669 46.0241107,6.94727212 46.0241107,7.00346894 L46.0241107,13.0724855 C46.0241107,13.1286762 46.0698761,13.1744477 46.1260729,13.1744477 L47.5171605,13.1744477 C47.5732468,13.1744477 47.6191228,13.1286762 47.6191228,13.0724855 L47.6191228,7.00389258 C47.6191834,6.97681174 47.6084444,6.95082429 47.5892844,6.93168614 C47.5701243,6.912548 47.5441246,6.90183874 47.5170438,6.90193033 L47.5171605,6.90150669 Z M46.8295124,4.13813132 C46.27843,4.13813132 45.8312438,4.58423689 45.8312438,5.13532547 C45.8312438,5.6867333 46.2785405,6.13338532 46.8295185,6.13338532 C47.3803922,6.13338532 47.8271363,5.6867333 47.8271363,5.13532547 C47.8271363,4.58434741 47.3801712,4.13813132 46.8300588,4.13813132 L46.8295124,4.13813132 Z M59.015908,8.85280646 C58.4653597,8.85280646 58.0369856,8.41066714 58.0369856,7.87376745 C58.0369856,7.33686776 58.470953,6.88968159 59.0210654,6.88968159 C59.5716259,6.88968159 60,7.3317104 60,7.86818031 C60,8.40508614 59.565916,8.85280646 59.0158098,8.85280646 L59.015908,8.85280646 Z M59.0212803,6.98702678 C58.5198374,6.98702678 58.140446,7.3856478 58.140446,7.87376745 C58.140446,8.36167835 58.5171482,8.75492712 59.0162334,8.75492712 C59.5175657,8.75492712 59.8973931,8.35663151 59.8973931,7.86818031 C59.8973931,7.38027555 59.5202549,6.98702678 59.0217162,6.98702678 L59.0212803,6.98702678 Z M59.2383315,7.96885322 L59.5152204,8.35652099 L59.2817454,8.35652099 L59.0324607,8.00087798 L58.8181232,8.00087798 L58.8181232,8.35652099 L58.6226838,8.35652099 L58.6226838,7.32891683 L59.0809337,7.32891683 C59.3196766,7.32891683 59.4766568,7.45107875 59.4766568,7.65673465 C59.4777251,7.82520844 59.3799563,7.92814077 59.2391972,7.96885936 L59.2383315,7.96885936 L59.2383315,7.96885322 Z M59.0728661,7.50523718 L58.8179943,7.50523718 L58.8179943,7.83026143 L59.0728661,7.83026143 C59.2000749,7.83026143 59.2760293,7.76804769 59.2760293,7.66758967 C59.2760293,7.56186377 59.1997495,7.50524332 59.0729644,7.50524332 L59.0728661,7.50524332 L59.0728661,7.50523718 Z" id="Spotify" fill="#FFFFFF" fill-rule="nonzero"></path>
    </g>
</svg>