<?xml version="1.0" encoding="UTF-8"?>
<svg width="59px" height="14px" viewBox="0 0 59 14" version="1.1" xmlns="http://www.w3.org/2000/svg" xmlns:xlink="http://www.w3.org/1999/xlink">
    <!-- Generator: Sketch 48.2 (47327) - http://www.bohemiancoding.com/sketch -->
    <title>Apple Music</title>
    <desc>Created with Sketch.</desc>
    <defs></defs>
    <g id="Page-1" stroke="none" stroke-width="1" fill="none" fill-rule="evenodd">
        <path d="M9.28726555,7.42062281 C9.26859912,6.28161177 9.76056717,5.39495647 10.7620928,4.76029794 C10.1972539,3.93897514 9.36426456,3.47734003 8.26276586,3.37413623 C7.87095037,3.33734183 7.37000808,3.42995603 6.76065691,3.65431212 C6.10517814,3.89733465 5.73615723,4.01812797 5.65431212,4.01812797 C5.4812887,4.01812797 5.14906219,3.91600108 4.65673517,3.71013192 C4.16548506,3.50480122 3.74638787,3.40213587 3.40034102,3.40213587 C2.81773311,3.41164857 2.27568877,3.5726465 1.77510545,3.88512968 C1.27434264,4.19797182 0.873911873,4.62532532 0.573633671,5.16611325 C0.190792426,5.83846361 0,6.64129947 0,7.57444135 C0,8.41443058 0.140716145,9.25424033 0.422866374,10.094768 C0.68688863,10.8976039 1.0243202,11.6022615 1.43354572,12.2083819 C1.79736157,12.759221 2.11720363,13.1605492 2.38948219,13.412905 C2.78147716,13.8047205 3.18154895,13.9917437 3.59185139,13.9727183 C3.85569416,13.9630261 4.20138203,13.8652069 4.62945347,13.6780041 C5.02970475,13.5015705 5.43067397,13.4127255 5.8314637,13.4127255 C6.20461276,13.4127255 6.59122319,13.501032 6.99237189,13.6780041 C7.43821233,13.8652069 7.80274612,13.9583595 8.08489635,13.9583595 C8.50381405,13.9400521 8.89509109,13.7578749 9.25980436,13.412905 C9.38670017,13.3003679 9.52580095,13.1465494 9.67585031,12.9505519 C9.84907309,12.7222601 10.0154107,12.4888248 10.1746388,12.2505609 C10.3073187,12.0451023 10.4326191,11.8349711 10.5503006,11.620569 C10.6765436,11.389691 10.78828,11.1511723 10.8848605,10.9063986 C10.9299112,10.8037333 10.9708337,10.6989141 11.0076281,10.5915822 C11.0438841,10.4842502 11.0803195,10.3749439 11.1167549,10.2627659 C10.7798618,10.1137934 10.4747375,9.90289868 10.201741,9.632056 C9.60154357,9.03562775 9.29641928,8.2979449 9.28726555,7.42062281 Z M19.1907027,9.91653953 L19.1244728,9.91653953 L16.3508929,3.57821054 L14.1728439,3.57821054 L14.1728439,13.8047205 L16.071076,13.8047205 L16.071076,7.18154895 L16.1592031,7.18154895 L18.4770708,12.4408149 L19.8083101,12.4408149 L22.118819,7.18154895 L22.207305,7.18154895 L22.207305,13.8047205 L24.1274343,13.8047205 L24.1274343,3.57821054 L21.9642825,3.57821054 L19.1907027,9.91653953 Z M7.56600556,2.24033025 C8.04881989,1.63349188 8.29022705,0.980166921 8.29022705,0.27999641 L8.29022705,0.14017769 C8.29022705,0.0931526519 8.28556044,0.0466660684 8.2765862,0 C7.9395136,0.0186664274 7.58233869,0.12617787 7.20416405,0.321816387 C6.82652787,0.518172844 6.51476263,0.765861976 6.26850938,1.06398636 C5.77707978,1.65251728 5.53100601,2.28215023 5.53100601,2.9543211 L5.53100601,3.08696042 C5.53100601,3.12931885 5.53567262,3.17347213 5.54464686,3.22049717 C6.30063717,3.2949834 6.9744234,2.96814143 7.56600556,2.24033025 Z M46.3132011,3.57821054 L48.4467379,3.57821054 L48.4467379,13.8048999 L46.3132011,13.8048999 L46.3132011,3.57821054 Z M54.890604,5.20380508 C56.1559724,5.20380508 56.825092,6.17786951 56.825092,7.22677914 L58.8710401,7.22677914 L58.8710401,7.00942296 C58.8710401,5.03167908 57.3626492,3.38364893 54.8757067,3.38364893 C52.2121511,3.38364893 50.6231715,5.13667773 50.6231715,8.12617787 L50.6231715,9.28008615 C50.6231715,12.2686889 52.1974334,14 54.8681684,14 C57.4213408,14 58.8710401,12.3286368 58.8710401,10.4709683 L58.8710401,10.2462533 L56.8252715,10.2462533 C56.8252715,11.3030602 56.1706901,12.1794849 54.9056807,12.1794849 C53.6103383,12.1794849 52.7861438,11.25783 52.7861438,9.28708606 L52.7861438,8.1340752 C52.7861438,6.17015166 53.6178767,5.20380508 54.890604,5.20380508 Z M32.2875348,10.0360765 C32.2875348,11.4075204 31.4855963,12.1638697 30.3085345,12.1638697 C29.1239343,12.1638697 28.3221754,11.4146998 28.3221754,10.0360765 L28.3221754,3.57821054 L26.2029974,3.57821054 L26.2029974,10.3358162 C26.2029974,12.5165575 27.7478237,13.9998205 30.3081755,13.9998205 C32.8613479,13.9998205 34.4135332,12.5165575 34.4135332,10.3358162 L34.4135332,3.57821054 L32.2875348,3.57821054 L32.2875348,10.0360765 Z M41.4724939,7.84869425 L39.9497442,7.50444225 C39.0523198,7.31652158 38.5813515,6.91968052 38.5813515,6.3275599 C38.5813515,5.54123665 39.2212151,5.04657633 40.2518173,5.04657633 C41.4141614,5.04657633 41.9953334,5.71336265 42.0466661,6.43273804 L44.0332047,6.43273804 C44.0111281,4.62694068 42.5030961,3.36839271 40.2588172,3.36839271 C38.1328188,3.36839271 36.4551737,4.48496814 36.4551737,6.49268599 C36.4551737,8.23081755 37.6325945,9.03939693 39.0451404,9.34739298 L40.5531724,9.69918334 C41.5685184,9.93143678 42.0834605,10.2688683 42.0834605,10.9650902 C42.0834605,11.7598492 41.4505968,12.2993808 40.2663556,12.2993808 C38.9934488,12.2993808 38.3237907,11.6248766 38.2652787,10.8679889 L36.2196895,10.8679889 C36.2496635,12.3140985 37.2059589,13.9998205 40.1636902,13.9998205 C42.6502737,13.9998205 44.1882796,12.7637082 44.1882796,10.7550929 C44.1875617,8.89706542 42.9440905,8.17033115 41.4724939,7.84869425 Z" id="Apple-Music" fill="#FFFFFF" fill-rule="nonzero"></path>
    </g>
</svg>